<mxfile host="app.diagrams.net" modified="2024-01-24T07:30:34.689Z" agent="Mozilla/5.0 (Macintosh; Intel Mac OS X 10_15_7) AppleWebKit/605.1.15 (KHTML, like Gecko) Version/17.2 Safari/605.1.15" etag="80sekkhA8RSVl16h6V_k" version="22.1.21" type="github">
  <diagram name="Page-1" id="OAkvakmoVMqIpzo2L1Cv">
    <mxGraphModel dx="2449" dy="1145" grid="0" gridSize="10" guides="1" tooltips="1" connect="1" arrows="1" fold="1" page="0" pageScale="1" pageWidth="827" pageHeight="1169" math="0" shadow="0">
      <root>
        <mxCell id="0" />
        <mxCell id="1" parent="0" />
        <mxCell id="j62AXMb6bTzkXsgk1TQ5-98" value="" style="whiteSpace=wrap;html=1;fontSize=16;" vertex="1" parent="1">
          <mxGeometry x="53" y="365" width="1223" height="384" as="geometry" />
        </mxCell>
        <mxCell id="j62AXMb6bTzkXsgk1TQ5-92" value="" style="rounded=1;whiteSpace=wrap;html=1;" vertex="1" parent="1">
          <mxGeometry x="507" y="818" width="103" height="45" as="geometry" />
        </mxCell>
        <mxCell id="j62AXMb6bTzkXsgk1TQ5-91" value="" style="rounded=0;whiteSpace=wrap;html=1;dashed=1;" vertex="1" parent="1">
          <mxGeometry x="483" y="389" width="486" height="350" as="geometry" />
        </mxCell>
        <mxCell id="j62AXMb6bTzkXsgk1TQ5-84" value="" style="rounded=1;whiteSpace=wrap;html=1;" vertex="1" parent="1">
          <mxGeometry x="497" y="827.5" width="103" height="45" as="geometry" />
        </mxCell>
        <mxCell id="j62AXMb6bTzkXsgk1TQ5-83" value="" style="rounded=0;whiteSpace=wrap;html=1;dashed=1;" vertex="1" parent="1">
          <mxGeometry x="216" y="388" width="258" height="350" as="geometry" />
        </mxCell>
        <mxCell id="j62AXMb6bTzkXsgk1TQ5-82" value="" style="rounded=0;whiteSpace=wrap;html=1;dashed=1;" vertex="1" parent="1">
          <mxGeometry x="61" y="388" width="146" height="350" as="geometry" />
        </mxCell>
        <mxCell id="j62AXMb6bTzkXsgk1TQ5-81" value="" style="rounded=0;whiteSpace=wrap;html=1;dashed=1;" vertex="1" parent="1">
          <mxGeometry x="-137" y="388" width="182" height="350" as="geometry" />
        </mxCell>
        <mxCell id="j62AXMb6bTzkXsgk1TQ5-80" value="" style="rounded=0;whiteSpace=wrap;html=1;dashed=1;" vertex="1" parent="1">
          <mxGeometry x="-364" y="388" width="206" height="351" as="geometry" />
        </mxCell>
        <mxCell id="TtApkbNEtEup5KKo7Kl3-83" value="&lt;b&gt;&lt;font style=&quot;font-size: 14px;&quot;&gt;Scenario Engine CYCLEone&lt;/font&gt;&lt;/b&gt;" style="text;html=1;align=center;verticalAlign=middle;resizable=0;points=[];autosize=1;fillColor=default;" parent="1" vertex="1">
          <mxGeometry x="1059" y="732" width="204" height="28" as="geometry" />
        </mxCell>
        <mxCell id="j62AXMb6bTzkXsgk1TQ5-1" value="Data source&amp;nbsp;&lt;br style=&quot;font-size: 12px;&quot;&gt;&lt;i style=&quot;font-size: 12px;&quot;&gt;Simulator&lt;/i&gt;" style="text;strokeColor=#6c8ebf;fillColor=#dae8fc;html=1;align=center;verticalAlign=middle;whiteSpace=wrap;rounded=1;fontSize=12;gradientColor=none;" vertex="1" parent="1">
          <mxGeometry x="-352" y="440" width="98" height="51" as="geometry" />
        </mxCell>
        <mxCell id="j62AXMb6bTzkXsgk1TQ5-9" style="edgeStyle=orthogonalEdgeStyle;rounded=0;orthogonalLoop=1;jettySize=auto;html=1;" edge="1" parent="1" source="j62AXMb6bTzkXsgk1TQ5-2" target="j62AXMb6bTzkXsgk1TQ5-8">
          <mxGeometry relative="1" as="geometry" />
        </mxCell>
        <mxCell id="j62AXMb6bTzkXsgk1TQ5-13" value="Converted&lt;br&gt;&amp;nbsp;data" style="edgeLabel;html=1;align=center;verticalAlign=middle;resizable=0;points=[];" vertex="1" connectable="0" parent="j62AXMb6bTzkXsgk1TQ5-9">
          <mxGeometry x="-0.1604" y="1" relative="1" as="geometry">
            <mxPoint x="11" as="offset" />
          </mxGeometry>
        </mxCell>
        <mxCell id="j62AXMb6bTzkXsgk1TQ5-2" value="Data Format Converter" style="text;html=1;align=center;verticalAlign=middle;resizable=0;points=[];autosize=1;strokeColor=#82b366;fillColor=#d5e8d4;fontSize=12;rotation=-90;rounded=1;" vertex="1" parent="1">
          <mxGeometry x="-254" y="571" width="141" height="26" as="geometry" />
        </mxCell>
        <mxCell id="j62AXMb6bTzkXsgk1TQ5-3" value="Data source&amp;nbsp;&lt;br&gt;Vehicle" style="text;strokeColor=#6c8ebf;fillColor=#dae8fc;html=1;align=center;verticalAlign=middle;whiteSpace=wrap;rounded=1;fontSize=12;gradientColor=none;" vertex="1" parent="1">
          <mxGeometry x="-352" y="556" width="98" height="51" as="geometry" />
        </mxCell>
        <mxCell id="j62AXMb6bTzkXsgk1TQ5-4" value="Data source&amp;nbsp;&lt;br style=&quot;border-color: var(--border-color); font-size: 12px;&quot;&gt;Record" style="text;strokeColor=#6c8ebf;fillColor=#dae8fc;html=1;align=center;verticalAlign=middle;whiteSpace=wrap;rounded=1;fontSize=12;gradientColor=none;" vertex="1" parent="1">
          <mxGeometry x="-352" y="676.5" width="98" height="51" as="geometry" />
        </mxCell>
        <mxCell id="j62AXMb6bTzkXsgk1TQ5-5" style="edgeStyle=orthogonalEdgeStyle;rounded=1;orthogonalLoop=1;jettySize=auto;html=1;entryX=0.004;entryY=0.519;entryDx=0;entryDy=0;entryPerimeter=0;curved=0;" edge="1" parent="1" source="j62AXMb6bTzkXsgk1TQ5-4" target="j62AXMb6bTzkXsgk1TQ5-2">
          <mxGeometry relative="1" as="geometry" />
        </mxCell>
        <mxCell id="j62AXMb6bTzkXsgk1TQ5-12" value="Data" style="edgeLabel;html=1;align=center;verticalAlign=middle;resizable=0;points=[];" vertex="1" connectable="0" parent="j62AXMb6bTzkXsgk1TQ5-5">
          <mxGeometry x="-0.3746" y="4" relative="1" as="geometry">
            <mxPoint as="offset" />
          </mxGeometry>
        </mxCell>
        <mxCell id="j62AXMb6bTzkXsgk1TQ5-6" style="edgeStyle=orthogonalEdgeStyle;rounded=0;orthogonalLoop=1;jettySize=auto;html=1;entryX=0.519;entryY=0.048;entryDx=0;entryDy=0;entryPerimeter=0;" edge="1" parent="1" source="j62AXMb6bTzkXsgk1TQ5-3" target="j62AXMb6bTzkXsgk1TQ5-2">
          <mxGeometry relative="1" as="geometry" />
        </mxCell>
        <mxCell id="j62AXMb6bTzkXsgk1TQ5-11" value="Data" style="edgeLabel;html=1;align=center;verticalAlign=middle;resizable=0;points=[];" vertex="1" connectable="0" parent="j62AXMb6bTzkXsgk1TQ5-6">
          <mxGeometry x="-0.2002" y="-1" relative="1" as="geometry">
            <mxPoint as="offset" />
          </mxGeometry>
        </mxCell>
        <mxCell id="j62AXMb6bTzkXsgk1TQ5-7" style="edgeStyle=orthogonalEdgeStyle;rounded=1;orthogonalLoop=1;jettySize=auto;html=1;exitX=1;exitY=0.5;exitDx=0;exitDy=0;curved=0;" edge="1" parent="1" source="j62AXMb6bTzkXsgk1TQ5-1">
          <mxGeometry relative="1" as="geometry">
            <mxPoint x="-182" y="514" as="targetPoint" />
          </mxGeometry>
        </mxCell>
        <mxCell id="j62AXMb6bTzkXsgk1TQ5-10" value="Data" style="edgeLabel;html=1;align=center;verticalAlign=middle;resizable=0;points=[];" vertex="1" connectable="0" parent="j62AXMb6bTzkXsgk1TQ5-7">
          <mxGeometry x="-0.2101" y="2" relative="1" as="geometry">
            <mxPoint as="offset" />
          </mxGeometry>
        </mxCell>
        <mxCell id="j62AXMb6bTzkXsgk1TQ5-31" value="" style="edgeStyle=orthogonalEdgeStyle;rounded=0;orthogonalLoop=1;jettySize=auto;html=1;" edge="1" parent="1" source="j62AXMb6bTzkXsgk1TQ5-8">
          <mxGeometry relative="1" as="geometry">
            <mxPoint x="103" y="584" as="targetPoint" />
          </mxGeometry>
        </mxCell>
        <mxCell id="j62AXMb6bTzkXsgk1TQ5-32" value="Scenario &lt;br&gt;Samples" style="edgeLabel;html=1;align=center;verticalAlign=middle;resizable=0;points=[];" vertex="1" connectable="0" parent="j62AXMb6bTzkXsgk1TQ5-31">
          <mxGeometry x="-0.0139" y="-1" relative="1" as="geometry">
            <mxPoint as="offset" />
          </mxGeometry>
        </mxCell>
        <mxCell id="j62AXMb6bTzkXsgk1TQ5-8" value="Ai-based &lt;br&gt;recognition &lt;br&gt;of &lt;br&gt;scenarios&amp;nbsp;" style="text;html=1;align=center;verticalAlign=middle;resizable=0;points=[];autosize=1;strokeColor=#666666;fillColor=#f5f5f5;fontColor=#333333;rounded=1;" vertex="1" parent="1">
          <mxGeometry x="-58.5" y="550" width="77" height="68" as="geometry" />
        </mxCell>
        <mxCell id="j62AXMb6bTzkXsgk1TQ5-21" style="edgeStyle=orthogonalEdgeStyle;rounded=0;orthogonalLoop=1;jettySize=auto;html=1;entryX=0.5;entryY=1;entryDx=0;entryDy=0;" edge="1" source="j62AXMb6bTzkXsgk1TQ5-22" target="j62AXMb6bTzkXsgk1TQ5-25" parent="1">
          <mxGeometry relative="1" as="geometry" />
        </mxCell>
        <mxCell id="j62AXMb6bTzkXsgk1TQ5-22" value="Use case" style="text;html=1;align=center;verticalAlign=middle;resizable=0;points=[];autosize=1;strokeColor=default;fillColor=default;rounded=1;" vertex="1" parent="1">
          <mxGeometry x="-54" y="915" width="68" height="26" as="geometry" />
        </mxCell>
        <mxCell id="j62AXMb6bTzkXsgk1TQ5-23" style="edgeStyle=orthogonalEdgeStyle;rounded=0;orthogonalLoop=1;jettySize=auto;html=1;" edge="1" source="j62AXMb6bTzkXsgk1TQ5-24" target="j62AXMb6bTzkXsgk1TQ5-25" parent="1">
          <mxGeometry relative="1" as="geometry" />
        </mxCell>
        <mxCell id="j62AXMb6bTzkXsgk1TQ5-24" value="Quality and requirements analysis" style="rounded=1;whiteSpace=wrap;html=1;" vertex="1" parent="1">
          <mxGeometry x="-241" y="819" width="120" height="60" as="geometry" />
        </mxCell>
        <mxCell id="j62AXMb6bTzkXsgk1TQ5-27" style="edgeStyle=orthogonalEdgeStyle;rounded=0;orthogonalLoop=1;jettySize=auto;html=1;" edge="1" parent="1" source="j62AXMb6bTzkXsgk1TQ5-25" target="j62AXMb6bTzkXsgk1TQ5-26">
          <mxGeometry relative="1" as="geometry" />
        </mxCell>
        <mxCell id="j62AXMb6bTzkXsgk1TQ5-25" value="Relevant scenarios based on attributes" style="rounded=1;whiteSpace=wrap;html=1;" vertex="1" parent="1">
          <mxGeometry x="-80" y="819" width="120" height="60" as="geometry" />
        </mxCell>
        <mxCell id="j62AXMb6bTzkXsgk1TQ5-44" style="edgeStyle=orthogonalEdgeStyle;rounded=0;orthogonalLoop=1;jettySize=auto;html=1;entryX=0.5;entryY=1;entryDx=0;entryDy=0;" edge="1" parent="1" source="j62AXMb6bTzkXsgk1TQ5-26" target="j62AXMb6bTzkXsgk1TQ5-43">
          <mxGeometry relative="1" as="geometry" />
        </mxCell>
        <mxCell id="j62AXMb6bTzkXsgk1TQ5-26" value="Scenario Description" style="rounded=1;whiteSpace=wrap;html=1;fillColor=#d5e8d4;strokeColor=#82b366;" vertex="1" parent="1">
          <mxGeometry x="-109.5" y="757" width="179" height="29" as="geometry" />
        </mxCell>
        <mxCell id="j62AXMb6bTzkXsgk1TQ5-29" value="" style="shape=image;html=1;verticalAlign=top;verticalLabelPosition=bottom;labelBackgroundColor=#ffffff;imageAspect=0;aspect=fixed;image=https://cdn4.iconfinder.com/data/icons/transportation-190/1000/carrier_office_people_person_people_carrier_people_business_success-128.png" vertex="1" parent="1">
          <mxGeometry x="-84" y="909" width="128" height="128" as="geometry" />
        </mxCell>
        <mxCell id="j62AXMb6bTzkXsgk1TQ5-33" value="Scenario DB" style="shape=datastore;whiteSpace=wrap;html=1;fontSize=10;fillColor=#ffe6cc;strokeColor=#d79b00;" vertex="1" parent="1">
          <mxGeometry x="106" y="558.5" width="50" height="51" as="geometry" />
        </mxCell>
        <mxCell id="j62AXMb6bTzkXsgk1TQ5-43" value="Logical block" style="rounded=1;whiteSpace=wrap;html=1;fillColor=#d5e8d4;strokeColor=#82b366;" vertex="1" parent="1">
          <mxGeometry x="-66.5" y="679" width="94.5" height="29" as="geometry" />
        </mxCell>
        <mxCell id="j62AXMb6bTzkXsgk1TQ5-47" style="edgeStyle=orthogonalEdgeStyle;rounded=0;orthogonalLoop=1;jettySize=auto;html=1;entryX=0.506;entryY=0.97;entryDx=0;entryDy=0;entryPerimeter=0;" edge="1" parent="1" source="j62AXMb6bTzkXsgk1TQ5-43" target="j62AXMb6bTzkXsgk1TQ5-8">
          <mxGeometry relative="1" as="geometry" />
        </mxCell>
        <mxCell id="j62AXMb6bTzkXsgk1TQ5-56" style="edgeStyle=orthogonalEdgeStyle;rounded=0;orthogonalLoop=1;jettySize=auto;html=1;exitX=0.469;exitY=-0.015;exitDx=0;exitDy=0;exitPerimeter=0;entryX=0.25;entryY=0;entryDx=0;entryDy=0;" edge="1" parent="1" source="j62AXMb6bTzkXsgk1TQ5-48" target="j62AXMb6bTzkXsgk1TQ5-52">
          <mxGeometry relative="1" as="geometry" />
        </mxCell>
        <mxCell id="j62AXMb6bTzkXsgk1TQ5-94" value="Parametrized&lt;br&gt;&amp;nbsp;test case" style="edgeLabel;html=1;align=left;verticalAlign=middle;resizable=0;points=[];" vertex="1" connectable="0" parent="j62AXMb6bTzkXsgk1TQ5-56">
          <mxGeometry x="-0.0874" y="2" relative="1" as="geometry">
            <mxPoint x="-31" y="-5" as="offset" />
          </mxGeometry>
        </mxCell>
        <mxCell id="j62AXMb6bTzkXsgk1TQ5-48" value="&lt;div&gt;Interpretation&lt;br&gt;&lt;/div&gt;&lt;div&gt;to attributes&lt;/div&gt;&lt;div&gt;and&lt;/div&gt;&lt;div&gt;parameters&lt;/div&gt;" style="text;html=1;align=center;verticalAlign=middle;resizable=0;points=[];autosize=1;strokeColor=#666666;fillColor=#f5f5f5;fontColor=#333333;rounded=1;" vertex="1" parent="1">
          <mxGeometry x="231" y="547.5" width="89" height="68" as="geometry" />
        </mxCell>
        <mxCell id="j62AXMb6bTzkXsgk1TQ5-49" value="STEP 2: Scenario&lt;br&gt;&amp;nbsp;Initialization" style="rounded=1;whiteSpace=wrap;html=1;fillColor=#e1d5e7;strokeColor=#9673a6;" vertex="1" parent="1">
          <mxGeometry x="70.75" y="400" width="126.5" height="32" as="geometry" />
        </mxCell>
        <mxCell id="j62AXMb6bTzkXsgk1TQ5-50" value="STEP 1: Scenario sampling" style="rounded=1;whiteSpace=wrap;html=1;fillColor=#e1d5e7;strokeColor=#9673a6;" vertex="1" parent="1">
          <mxGeometry x="-130" y="400" width="153" height="23" as="geometry" />
        </mxCell>
        <mxCell id="j62AXMb6bTzkXsgk1TQ5-51" value="STEP 3: Test Case Parametrization" style="rounded=1;whiteSpace=wrap;html=1;fillColor=#e1d5e7;strokeColor=#9673a6;" vertex="1" parent="1">
          <mxGeometry x="223" y="400" width="235" height="23" as="geometry" />
        </mxCell>
        <mxCell id="j62AXMb6bTzkXsgk1TQ5-89" style="edgeStyle=orthogonalEdgeStyle;rounded=0;orthogonalLoop=1;jettySize=auto;html=1;entryX=0.5;entryY=0;entryDx=0;entryDy=0;exitX=0.5;exitY=0;exitDx=0;exitDy=0;" edge="1" parent="1" source="j62AXMb6bTzkXsgk1TQ5-52" target="j62AXMb6bTzkXsgk1TQ5-61">
          <mxGeometry relative="1" as="geometry" />
        </mxCell>
        <mxCell id="j62AXMb6bTzkXsgk1TQ5-90" value="Test case: &lt;br&gt;- internal parameters, &lt;br&gt;- agents-level actions, &lt;br&gt;- internal actions, &lt;br&gt;- environments parameters" style="edgeLabel;html=1;align=left;verticalAlign=middle;resizable=0;points=[];" vertex="1" connectable="0" parent="j62AXMb6bTzkXsgk1TQ5-89">
          <mxGeometry x="-0.4199" relative="1" as="geometry">
            <mxPoint x="15" y="-34" as="offset" />
          </mxGeometry>
        </mxCell>
        <mxCell id="j62AXMb6bTzkXsgk1TQ5-52" value="Scenario variation" style="rounded=1;whiteSpace=wrap;html=1;fillColor=#f5f5f5;fontColor=#333333;strokeColor=#666666;" vertex="1" parent="1">
          <mxGeometry x="352" y="559.5" width="103" height="45" as="geometry" />
        </mxCell>
        <mxCell id="j62AXMb6bTzkXsgk1TQ5-54" style="edgeStyle=orthogonalEdgeStyle;rounded=0;orthogonalLoop=1;jettySize=auto;html=1;entryX=0.001;entryY=0.542;entryDx=0;entryDy=0;entryPerimeter=0;" edge="1" parent="1" source="j62AXMb6bTzkXsgk1TQ5-33" target="j62AXMb6bTzkXsgk1TQ5-48">
          <mxGeometry relative="1" as="geometry" />
        </mxCell>
        <mxCell id="j62AXMb6bTzkXsgk1TQ5-55" value="Data" style="edgeLabel;html=1;align=center;verticalAlign=middle;resizable=0;points=[];" vertex="1" connectable="0" parent="j62AXMb6bTzkXsgk1TQ5-54">
          <mxGeometry x="-0.2597" y="1" relative="1" as="geometry">
            <mxPoint as="offset" />
          </mxGeometry>
        </mxCell>
        <mxCell id="j62AXMb6bTzkXsgk1TQ5-57" style="edgeStyle=orthogonalEdgeStyle;rounded=1;orthogonalLoop=1;jettySize=auto;html=1;entryX=0.485;entryY=1.007;entryDx=0;entryDy=0;entryPerimeter=0;curved=0;" edge="1" parent="1" source="j62AXMb6bTzkXsgk1TQ5-26" target="j62AXMb6bTzkXsgk1TQ5-48">
          <mxGeometry relative="1" as="geometry" />
        </mxCell>
        <mxCell id="j62AXMb6bTzkXsgk1TQ5-58" value="" style="rounded=0;whiteSpace=wrap;html=1;dashed=1;" vertex="1" parent="1">
          <mxGeometry x="979" y="389" width="258" height="350" as="geometry" />
        </mxCell>
        <mxCell id="j62AXMb6bTzkXsgk1TQ5-59" value="STEP 4: Test Case Simulation" style="rounded=1;whiteSpace=wrap;html=1;fillColor=#e1d5e7;strokeColor=#9673a6;" vertex="1" parent="1">
          <mxGeometry x="488" y="400" width="468" height="23" as="geometry" />
        </mxCell>
        <mxCell id="j62AXMb6bTzkXsgk1TQ5-60" style="edgeStyle=orthogonalEdgeStyle;rounded=0;orthogonalLoop=1;jettySize=auto;html=1;exitX=0.5;exitY=1;exitDx=0;exitDy=0;entryX=0.5;entryY=0;entryDx=0;entryDy=0;" edge="1" parent="1" source="j62AXMb6bTzkXsgk1TQ5-61" target="j62AXMb6bTzkXsgk1TQ5-64">
          <mxGeometry relative="1" as="geometry" />
        </mxCell>
        <mxCell id="j62AXMb6bTzkXsgk1TQ5-61" value="Logical scenario" style="rounded=1;whiteSpace=wrap;html=1;fillColor=#f5f5f5;fontColor=#333333;strokeColor=#666666;" vertex="1" parent="1">
          <mxGeometry x="489" y="559.5" width="103" height="45" as="geometry" />
        </mxCell>
        <mxCell id="j62AXMb6bTzkXsgk1TQ5-62" style="edgeStyle=orthogonalEdgeStyle;rounded=1;orthogonalLoop=1;jettySize=auto;html=1;entryX=0.5;entryY=1;entryDx=0;entryDy=0;jumpStyle=arc;strokeColor=default;curved=0;exitX=1;exitY=0.25;exitDx=0;exitDy=0;" edge="1" parent="1" source="j62AXMb6bTzkXsgk1TQ5-68" target="j62AXMb6bTzkXsgk1TQ5-65">
          <mxGeometry relative="1" as="geometry">
            <Array as="points">
              <mxPoint x="661" y="846" />
              <mxPoint x="661" y="606" />
            </Array>
          </mxGeometry>
        </mxCell>
        <mxCell id="j62AXMb6bTzkXsgk1TQ5-97" value="Metrics" style="edgeLabel;html=1;align=center;verticalAlign=middle;resizable=0;points=[];" vertex="1" connectable="0" parent="j62AXMb6bTzkXsgk1TQ5-62">
          <mxGeometry x="-0.3338" y="1" relative="1" as="geometry">
            <mxPoint as="offset" />
          </mxGeometry>
        </mxCell>
        <mxCell id="j62AXMb6bTzkXsgk1TQ5-63" style="edgeStyle=orthogonalEdgeStyle;rounded=0;orthogonalLoop=1;jettySize=auto;html=1;" edge="1" parent="1" source="j62AXMb6bTzkXsgk1TQ5-64" target="j62AXMb6bTzkXsgk1TQ5-68">
          <mxGeometry relative="1" as="geometry" />
        </mxCell>
        <mxCell id="j62AXMb6bTzkXsgk1TQ5-64" value="Logical scenario&lt;br&gt;Compilation" style="rounded=1;whiteSpace=wrap;html=1;fillColor=#f5f5f5;fontColor=#333333;strokeColor=#666666;" vertex="1" parent="1">
          <mxGeometry x="489" y="658" width="103" height="45" as="geometry" />
        </mxCell>
        <mxCell id="j62AXMb6bTzkXsgk1TQ5-65" value="Pass/fail criteria and KPI metrics" style="rounded=1;whiteSpace=wrap;html=1;fillColor=#f5f5f5;fontColor=#333333;strokeColor=#666666;" vertex="1" parent="1">
          <mxGeometry x="609" y="560.5" width="103" height="45" as="geometry" />
        </mxCell>
        <mxCell id="j62AXMb6bTzkXsgk1TQ5-66" style="edgeStyle=orthogonalEdgeStyle;rounded=1;orthogonalLoop=1;jettySize=auto;html=1;entryX=0.5;entryY=1;entryDx=0;entryDy=0;curved=0;startArrow=classic;startFill=1;" edge="1" parent="1" source="j62AXMb6bTzkXsgk1TQ5-68" target="j62AXMb6bTzkXsgk1TQ5-70">
          <mxGeometry relative="1" as="geometry" />
        </mxCell>
        <mxCell id="j62AXMb6bTzkXsgk1TQ5-95" value="Inputs/outputs" style="edgeLabel;html=1;align=center;verticalAlign=middle;resizable=0;points=[];" vertex="1" connectable="0" parent="j62AXMb6bTzkXsgk1TQ5-66">
          <mxGeometry x="-0.5053" y="5" relative="1" as="geometry">
            <mxPoint as="offset" />
          </mxGeometry>
        </mxCell>
        <mxCell id="j62AXMb6bTzkXsgk1TQ5-67" style="edgeStyle=orthogonalEdgeStyle;rounded=1;orthogonalLoop=1;jettySize=auto;html=1;exitX=1;exitY=0.75;exitDx=0;exitDy=0;curved=0;startArrow=classic;startFill=1;" edge="1" parent="1" source="j62AXMb6bTzkXsgk1TQ5-68" target="j62AXMb6bTzkXsgk1TQ5-71">
          <mxGeometry relative="1" as="geometry" />
        </mxCell>
        <mxCell id="j62AXMb6bTzkXsgk1TQ5-96" value="Metrics, charts" style="edgeLabel;html=1;align=center;verticalAlign=middle;resizable=0;points=[];" vertex="1" connectable="0" parent="j62AXMb6bTzkXsgk1TQ5-67">
          <mxGeometry x="-0.3134" relative="1" as="geometry">
            <mxPoint as="offset" />
          </mxGeometry>
        </mxCell>
        <mxCell id="j62AXMb6bTzkXsgk1TQ5-68" value="SiL&lt;br&gt;(Simulator)" style="rounded=1;whiteSpace=wrap;html=1;" vertex="1" parent="1">
          <mxGeometry x="483" y="835" width="103" height="45" as="geometry" />
        </mxCell>
        <mxCell id="j62AXMb6bTzkXsgk1TQ5-69" value="Data format converter" style="rounded=1;whiteSpace=wrap;html=1;fillColor=#d5e8d4;strokeColor=#82b366;" vertex="1" parent="1">
          <mxGeometry x="514" y="757" width="179" height="29" as="geometry" />
        </mxCell>
        <mxCell id="j62AXMb6bTzkXsgk1TQ5-70" value="Runtime&amp;nbsp;&lt;br&gt;Interaction" style="rounded=1;whiteSpace=wrap;html=1;fillColor=#f5f5f5;fontColor=#333333;strokeColor=#666666;" vertex="1" parent="1">
          <mxGeometry x="731" y="560.5" width="103" height="45" as="geometry" />
        </mxCell>
        <mxCell id="j62AXMb6bTzkXsgk1TQ5-71" value="Runtime&amp;nbsp;&lt;br&gt;test evaluation" style="rounded=1;whiteSpace=wrap;html=1;fillColor=#f5f5f5;fontColor=#333333;strokeColor=#666666;" vertex="1" parent="1">
          <mxGeometry x="853" y="558.5" width="103" height="45" as="geometry" />
        </mxCell>
        <mxCell id="j62AXMb6bTzkXsgk1TQ5-72" value="STEP 5: Evaluation" style="rounded=1;whiteSpace=wrap;html=1;fillColor=#e1d5e7;strokeColor=#9673a6;" vertex="1" parent="1">
          <mxGeometry x="999" y="400" width="218" height="23" as="geometry" />
        </mxCell>
        <mxCell id="j62AXMb6bTzkXsgk1TQ5-73" style="edgeStyle=orthogonalEdgeStyle;rounded=0;orthogonalLoop=1;jettySize=auto;html=1;exitX=1;exitY=0.5;exitDx=0;exitDy=0;entryX=0;entryY=0.5;entryDx=0;entryDy=0;" edge="1" parent="1" source="j62AXMb6bTzkXsgk1TQ5-74" target="j62AXMb6bTzkXsgk1TQ5-75">
          <mxGeometry relative="1" as="geometry" />
        </mxCell>
        <mxCell id="j62AXMb6bTzkXsgk1TQ5-74" value="Post-run test&amp;nbsp;&lt;br style=&quot;border-color: var(--border-color);&quot;&gt;evaluation" style="rounded=1;whiteSpace=wrap;html=1;fillColor=#f5f5f5;strokeColor=#666666;" vertex="1" parent="1">
          <mxGeometry x="990" y="558" width="103" height="45" as="geometry" />
        </mxCell>
        <mxCell id="j62AXMb6bTzkXsgk1TQ5-75" value="Storage" style="rounded=1;whiteSpace=wrap;html=1;fillColor=#f5f5f5;strokeColor=#666666;" vertex="1" parent="1">
          <mxGeometry x="1116" y="558" width="103" height="45" as="geometry" />
        </mxCell>
        <mxCell id="j62AXMb6bTzkXsgk1TQ5-76" value="" style="endArrow=classic;html=1;rounded=0;" edge="1" parent="1">
          <mxGeometry width="50" height="50" relative="1" as="geometry">
            <mxPoint x="955" y="579" as="sourcePoint" />
            <mxPoint x="990" y="579" as="targetPoint" />
          </mxGeometry>
        </mxCell>
        <mxCell id="j62AXMb6bTzkXsgk1TQ5-79" value="STEP 0: Data sampling" style="rounded=1;whiteSpace=wrap;html=1;fillColor=#e1d5e7;strokeColor=#9673a6;" vertex="1" parent="1">
          <mxGeometry x="-348" y="400" width="163.5" height="23" as="geometry" />
        </mxCell>
      </root>
    </mxGraphModel>
  </diagram>
</mxfile>
